<mxfile host="Electron" agent="Mozilla/5.0 (Windows NT 10.0; Win64; x64) AppleWebKit/537.36 (KHTML, like Gecko) draw.io/27.0.5 Chrome/134.0.6998.205 Electron/35.3.0 Safari/537.36" version="27.0.5">
  <diagram id="cTFToIVUgpgvSuWGga8O" name="Tabela Componentes-Operações">
    <mxGraphModel dx="2531" dy="835" grid="1" gridSize="10" guides="1" tooltips="1" connect="1" arrows="1" fold="1" page="1" pageScale="1" pageWidth="850" pageHeight="1100" math="0" shadow="0" adaptiveColors="none">
      <root>
        <mxCell id="0" />
        <mxCell id="1" parent="0" />
        <mxCell id="vptl2pLsTMNDkcc11D4e-1" value="" style="shape=table;startSize=0;container=1;collapsible=0;childLayout=tableLayout;" parent="1" vertex="1">
          <mxGeometry x="-410" y="290" width="652" height="250" as="geometry" />
        </mxCell>
        <mxCell id="vptl2pLsTMNDkcc11D4e-2" value="" style="shape=tableRow;horizontal=0;startSize=0;swimlaneHead=0;swimlaneBody=0;strokeColor=inherit;top=0;left=0;bottom=0;right=0;collapsible=0;dropTarget=0;fillColor=none;points=[[0,0.5],[1,0.5]];portConstraint=eastwest;" parent="vptl2pLsTMNDkcc11D4e-1" vertex="1">
          <mxGeometry width="652" height="50" as="geometry" />
        </mxCell>
        <mxCell id="vptl2pLsTMNDkcc11D4e-3" value="" style="shape=partialRectangle;html=1;whiteSpace=wrap;connectable=0;strokeColor=inherit;overflow=hidden;fillColor=none;top=0;left=0;bottom=0;right=0;pointerEvents=1;" parent="vptl2pLsTMNDkcc11D4e-2" vertex="1">
          <mxGeometry width="112" height="50" as="geometry">
            <mxRectangle width="112" height="50" as="alternateBounds" />
          </mxGeometry>
        </mxCell>
        <mxCell id="vptl2pLsTMNDkcc11D4e-4" value="&lt;span style=&quot;text-align: left;&quot;&gt;Estiragem&lt;/span&gt;" style="shape=partialRectangle;html=1;whiteSpace=wrap;connectable=0;strokeColor=inherit;overflow=hidden;fillColor=none;top=0;left=0;bottom=0;right=0;pointerEvents=1;" parent="vptl2pLsTMNDkcc11D4e-2" vertex="1">
          <mxGeometry x="112" width="90" height="50" as="geometry">
            <mxRectangle width="90" height="50" as="alternateBounds" />
          </mxGeometry>
        </mxCell>
        <mxCell id="vptl2pLsTMNDkcc11D4e-5" value="&lt;span style=&quot;text-align: left;&quot;&gt;Pré-tratamento&lt;/span&gt;" style="shape=partialRectangle;html=1;whiteSpace=wrap;connectable=0;strokeColor=inherit;overflow=hidden;fillColor=none;top=0;left=0;bottom=0;right=0;pointerEvents=1;" parent="vptl2pLsTMNDkcc11D4e-2" vertex="1">
          <mxGeometry x="202" width="90" height="50" as="geometry">
            <mxRectangle width="90" height="50" as="alternateBounds" />
          </mxGeometry>
        </mxCell>
        <mxCell id="vptl2pLsTMNDkcc11D4e-6" value="&lt;span style=&quot;text-align: left;&quot;&gt;Galvanização&amp;nbsp;&lt;/span&gt;" style="shape=partialRectangle;html=1;whiteSpace=wrap;connectable=0;strokeColor=inherit;overflow=hidden;fillColor=none;top=0;left=0;bottom=0;right=0;pointerEvents=1;" parent="vptl2pLsTMNDkcc11D4e-2" vertex="1">
          <mxGeometry x="292" width="88" height="50" as="geometry">
            <mxRectangle width="88" height="50" as="alternateBounds" />
          </mxGeometry>
        </mxCell>
        <mxCell id="vptl2pLsTMNDkcc11D4e-7" value="&lt;span style=&quot;text-align: left;&quot;&gt;Torção&lt;/span&gt;" style="shape=partialRectangle;html=1;whiteSpace=wrap;connectable=0;strokeColor=inherit;overflow=hidden;fillColor=none;top=0;left=0;bottom=0;right=0;pointerEvents=1;" parent="vptl2pLsTMNDkcc11D4e-2" vertex="1">
          <mxGeometry x="380" width="94" height="50" as="geometry">
            <mxRectangle width="94" height="50" as="alternateBounds" />
          </mxGeometry>
        </mxCell>
        <mxCell id="vptl2pLsTMNDkcc11D4e-8" value="&lt;span style=&quot;text-align: left;&quot;&gt;Corte&lt;/span&gt;" style="shape=partialRectangle;html=1;whiteSpace=wrap;connectable=0;strokeColor=inherit;overflow=hidden;fillColor=none;top=0;left=0;bottom=0;right=0;pointerEvents=1;" parent="vptl2pLsTMNDkcc11D4e-2" vertex="1">
          <mxGeometry x="474" width="89" height="50" as="geometry">
            <mxRectangle width="89" height="50" as="alternateBounds" />
          </mxGeometry>
        </mxCell>
        <mxCell id="vptl2pLsTMNDkcc11D4e-9" value="&lt;span style=&quot;text-align: left;&quot;&gt;Empacotamento&lt;/span&gt;" style="shape=partialRectangle;html=1;whiteSpace=wrap;connectable=0;strokeColor=inherit;overflow=hidden;fillColor=none;top=0;left=0;bottom=0;right=0;pointerEvents=1;" parent="vptl2pLsTMNDkcc11D4e-2" vertex="1">
          <mxGeometry x="563" width="89" height="50" as="geometry">
            <mxRectangle width="89" height="50" as="alternateBounds" />
          </mxGeometry>
        </mxCell>
        <mxCell id="vptl2pLsTMNDkcc11D4e-10" value="" style="shape=tableRow;horizontal=0;startSize=0;swimlaneHead=0;swimlaneBody=0;strokeColor=inherit;top=0;left=0;bottom=0;right=0;collapsible=0;dropTarget=0;fillColor=none;points=[[0,0.5],[1,0.5]];portConstraint=eastwest;" parent="vptl2pLsTMNDkcc11D4e-1" vertex="1">
          <mxGeometry y="50" width="652" height="40" as="geometry" />
        </mxCell>
        <mxCell id="vptl2pLsTMNDkcc11D4e-11" value="Fio de Aço" style="shape=partialRectangle;html=1;whiteSpace=wrap;connectable=0;strokeColor=inherit;overflow=hidden;fillColor=none;top=0;left=0;bottom=0;right=0;pointerEvents=1;" parent="vptl2pLsTMNDkcc11D4e-10" vertex="1">
          <mxGeometry width="112" height="40" as="geometry">
            <mxRectangle width="112" height="40" as="alternateBounds" />
          </mxGeometry>
        </mxCell>
        <mxCell id="vptl2pLsTMNDkcc11D4e-12" value="0.022 h" style="shape=partialRectangle;html=1;whiteSpace=wrap;connectable=0;strokeColor=inherit;overflow=hidden;fillColor=none;top=0;left=0;bottom=0;right=0;pointerEvents=1;" parent="vptl2pLsTMNDkcc11D4e-10" vertex="1">
          <mxGeometry x="112" width="90" height="40" as="geometry">
            <mxRectangle width="90" height="40" as="alternateBounds" />
          </mxGeometry>
        </mxCell>
        <mxCell id="vptl2pLsTMNDkcc11D4e-13" value="0.063 h" style="shape=partialRectangle;html=1;whiteSpace=wrap;connectable=0;strokeColor=inherit;overflow=hidden;fillColor=none;top=0;left=0;bottom=0;right=0;pointerEvents=1;" parent="vptl2pLsTMNDkcc11D4e-10" vertex="1">
          <mxGeometry x="202" width="90" height="40" as="geometry">
            <mxRectangle width="90" height="40" as="alternateBounds" />
          </mxGeometry>
        </mxCell>
        <mxCell id="vptl2pLsTMNDkcc11D4e-14" value="0.083 h" style="shape=partialRectangle;html=1;whiteSpace=wrap;connectable=0;strokeColor=inherit;overflow=hidden;fillColor=none;top=0;left=0;bottom=0;right=0;pointerEvents=1;" parent="vptl2pLsTMNDkcc11D4e-10" vertex="1">
          <mxGeometry x="292" width="88" height="40" as="geometry">
            <mxRectangle width="88" height="40" as="alternateBounds" />
          </mxGeometry>
        </mxCell>
        <mxCell id="vptl2pLsTMNDkcc11D4e-15" value="---" style="shape=partialRectangle;html=1;whiteSpace=wrap;connectable=0;strokeColor=inherit;overflow=hidden;fillColor=none;top=0;left=0;bottom=0;right=0;pointerEvents=1;" parent="vptl2pLsTMNDkcc11D4e-10" vertex="1">
          <mxGeometry x="380" width="94" height="40" as="geometry">
            <mxRectangle width="94" height="40" as="alternateBounds" />
          </mxGeometry>
        </mxCell>
        <mxCell id="vptl2pLsTMNDkcc11D4e-16" value="---" style="shape=partialRectangle;html=1;whiteSpace=wrap;connectable=0;strokeColor=inherit;overflow=hidden;fillColor=none;top=0;left=0;bottom=0;right=0;pointerEvents=1;" parent="vptl2pLsTMNDkcc11D4e-10" vertex="1">
          <mxGeometry x="474" width="89" height="40" as="geometry">
            <mxRectangle width="89" height="40" as="alternateBounds" />
          </mxGeometry>
        </mxCell>
        <mxCell id="vptl2pLsTMNDkcc11D4e-17" value="---" style="shape=partialRectangle;html=1;whiteSpace=wrap;connectable=0;strokeColor=inherit;overflow=hidden;fillColor=none;top=0;left=0;bottom=0;right=0;pointerEvents=1;" parent="vptl2pLsTMNDkcc11D4e-10" vertex="1">
          <mxGeometry x="563" width="89" height="40" as="geometry">
            <mxRectangle width="89" height="40" as="alternateBounds" />
          </mxGeometry>
        </mxCell>
        <mxCell id="vptl2pLsTMNDkcc11D4e-18" value="" style="shape=tableRow;horizontal=0;startSize=0;swimlaneHead=0;swimlaneBody=0;strokeColor=inherit;top=0;left=0;bottom=0;right=0;collapsible=0;dropTarget=0;fillColor=none;points=[[0,0.5],[1,0.5]];portConstraint=eastwest;" parent="vptl2pLsTMNDkcc11D4e-1" vertex="1">
          <mxGeometry y="90" width="652" height="40" as="geometry" />
        </mxCell>
        <mxCell id="vptl2pLsTMNDkcc11D4e-19" value="Fio de Aço Galvanizado" style="shape=partialRectangle;html=1;whiteSpace=wrap;connectable=0;strokeColor=inherit;overflow=hidden;fillColor=none;top=0;left=0;bottom=0;right=0;pointerEvents=1;" parent="vptl2pLsTMNDkcc11D4e-18" vertex="1">
          <mxGeometry width="112" height="40" as="geometry">
            <mxRectangle width="112" height="40" as="alternateBounds" />
          </mxGeometry>
        </mxCell>
        <mxCell id="vptl2pLsTMNDkcc11D4e-20" value="---" style="shape=partialRectangle;html=1;whiteSpace=wrap;connectable=0;strokeColor=inherit;overflow=hidden;fillColor=none;top=0;left=0;bottom=0;right=0;pointerEvents=1;" parent="vptl2pLsTMNDkcc11D4e-18" vertex="1">
          <mxGeometry x="112" width="90" height="40" as="geometry">
            <mxRectangle width="90" height="40" as="alternateBounds" />
          </mxGeometry>
        </mxCell>
        <mxCell id="vptl2pLsTMNDkcc11D4e-21" value="---" style="shape=partialRectangle;html=1;whiteSpace=wrap;connectable=0;strokeColor=inherit;overflow=hidden;fillColor=none;top=0;left=0;bottom=0;right=0;pointerEvents=1;" parent="vptl2pLsTMNDkcc11D4e-18" vertex="1">
          <mxGeometry x="202" width="90" height="40" as="geometry">
            <mxRectangle width="90" height="40" as="alternateBounds" />
          </mxGeometry>
        </mxCell>
        <mxCell id="vptl2pLsTMNDkcc11D4e-22" value="---" style="shape=partialRectangle;html=1;whiteSpace=wrap;connectable=0;strokeColor=inherit;overflow=hidden;fillColor=none;top=0;left=0;bottom=0;right=0;pointerEvents=1;" parent="vptl2pLsTMNDkcc11D4e-18" vertex="1">
          <mxGeometry x="292" width="88" height="40" as="geometry">
            <mxRectangle width="88" height="40" as="alternateBounds" />
          </mxGeometry>
        </mxCell>
        <mxCell id="vptl2pLsTMNDkcc11D4e-23" value="0.05 h" style="shape=partialRectangle;html=1;whiteSpace=wrap;connectable=0;strokeColor=inherit;overflow=hidden;fillColor=none;top=0;left=0;bottom=0;right=0;pointerEvents=1;" parent="vptl2pLsTMNDkcc11D4e-18" vertex="1">
          <mxGeometry x="380" width="94" height="40" as="geometry">
            <mxRectangle width="94" height="40" as="alternateBounds" />
          </mxGeometry>
        </mxCell>
        <mxCell id="vptl2pLsTMNDkcc11D4e-24" value="---" style="shape=partialRectangle;html=1;whiteSpace=wrap;connectable=0;strokeColor=inherit;overflow=hidden;fillColor=none;top=0;left=0;bottom=0;right=0;pointerEvents=1;" parent="vptl2pLsTMNDkcc11D4e-18" vertex="1">
          <mxGeometry x="474" width="89" height="40" as="geometry">
            <mxRectangle width="89" height="40" as="alternateBounds" />
          </mxGeometry>
        </mxCell>
        <mxCell id="vptl2pLsTMNDkcc11D4e-25" value="---" style="shape=partialRectangle;html=1;whiteSpace=wrap;connectable=0;strokeColor=inherit;overflow=hidden;fillColor=none;top=0;left=0;bottom=0;right=0;pointerEvents=1;" parent="vptl2pLsTMNDkcc11D4e-18" vertex="1">
          <mxGeometry x="563" width="89" height="40" as="geometry">
            <mxRectangle width="89" height="40" as="alternateBounds" />
          </mxGeometry>
        </mxCell>
        <mxCell id="vptl2pLsTMNDkcc11D4e-26" value="" style="shape=tableRow;horizontal=0;startSize=0;swimlaneHead=0;swimlaneBody=0;strokeColor=inherit;top=0;left=0;bottom=0;right=0;collapsible=0;dropTarget=0;fillColor=none;points=[[0,0.5],[1,0.5]];portConstraint=eastwest;" parent="vptl2pLsTMNDkcc11D4e-1" vertex="1">
          <mxGeometry y="130" width="652" height="40" as="geometry" />
        </mxCell>
        <mxCell id="vptl2pLsTMNDkcc11D4e-27" value="Cabo de Aço Entrançado" style="shape=partialRectangle;html=1;whiteSpace=wrap;connectable=0;strokeColor=inherit;overflow=hidden;fillColor=none;top=0;left=0;bottom=0;right=0;pointerEvents=1;" parent="vptl2pLsTMNDkcc11D4e-26" vertex="1">
          <mxGeometry width="112" height="40" as="geometry">
            <mxRectangle width="112" height="40" as="alternateBounds" />
          </mxGeometry>
        </mxCell>
        <mxCell id="vptl2pLsTMNDkcc11D4e-28" value="---" style="shape=partialRectangle;html=1;whiteSpace=wrap;connectable=0;strokeColor=inherit;overflow=hidden;fillColor=none;top=0;left=0;bottom=0;right=0;pointerEvents=1;" parent="vptl2pLsTMNDkcc11D4e-26" vertex="1">
          <mxGeometry x="112" width="90" height="40" as="geometry">
            <mxRectangle width="90" height="40" as="alternateBounds" />
          </mxGeometry>
        </mxCell>
        <mxCell id="vptl2pLsTMNDkcc11D4e-29" value="---" style="shape=partialRectangle;html=1;whiteSpace=wrap;connectable=0;strokeColor=inherit;overflow=hidden;fillColor=none;top=0;left=0;bottom=0;right=0;pointerEvents=1;" parent="vptl2pLsTMNDkcc11D4e-26" vertex="1">
          <mxGeometry x="202" width="90" height="40" as="geometry">
            <mxRectangle width="90" height="40" as="alternateBounds" />
          </mxGeometry>
        </mxCell>
        <mxCell id="vptl2pLsTMNDkcc11D4e-30" value="---" style="shape=partialRectangle;html=1;whiteSpace=wrap;connectable=0;strokeColor=inherit;overflow=hidden;fillColor=none;top=0;left=0;bottom=0;right=0;pointerEvents=1;" parent="vptl2pLsTMNDkcc11D4e-26" vertex="1">
          <mxGeometry x="292" width="88" height="40" as="geometry">
            <mxRectangle width="88" height="40" as="alternateBounds" />
          </mxGeometry>
        </mxCell>
        <mxCell id="vptl2pLsTMNDkcc11D4e-31" value="---" style="shape=partialRectangle;html=1;whiteSpace=wrap;connectable=0;strokeColor=inherit;overflow=hidden;fillColor=none;top=0;left=0;bottom=0;right=0;pointerEvents=1;" parent="vptl2pLsTMNDkcc11D4e-26" vertex="1">
          <mxGeometry x="380" width="94" height="40" as="geometry">
            <mxRectangle width="94" height="40" as="alternateBounds" />
          </mxGeometry>
        </mxCell>
        <mxCell id="vptl2pLsTMNDkcc11D4e-32" value="0.017 h" style="shape=partialRectangle;html=1;whiteSpace=wrap;connectable=0;strokeColor=inherit;overflow=hidden;fillColor=none;top=0;left=0;bottom=0;right=0;pointerEvents=1;" parent="vptl2pLsTMNDkcc11D4e-26" vertex="1">
          <mxGeometry x="474" width="89" height="40" as="geometry">
            <mxRectangle width="89" height="40" as="alternateBounds" />
          </mxGeometry>
        </mxCell>
        <mxCell id="vptl2pLsTMNDkcc11D4e-33" value="---" style="shape=partialRectangle;html=1;whiteSpace=wrap;connectable=0;strokeColor=inherit;overflow=hidden;fillColor=none;top=0;left=0;bottom=0;right=0;pointerEvents=1;" parent="vptl2pLsTMNDkcc11D4e-26" vertex="1">
          <mxGeometry x="563" width="89" height="40" as="geometry">
            <mxRectangle width="89" height="40" as="alternateBounds" />
          </mxGeometry>
        </mxCell>
        <mxCell id="vptl2pLsTMNDkcc11D4e-34" value="" style="shape=tableRow;horizontal=0;startSize=0;swimlaneHead=0;swimlaneBody=0;strokeColor=inherit;top=0;left=0;bottom=0;right=0;collapsible=0;dropTarget=0;fillColor=none;points=[[0,0.5],[1,0.5]];portConstraint=eastwest;" parent="vptl2pLsTMNDkcc11D4e-1" vertex="1">
          <mxGeometry y="170" width="652" height="40" as="geometry" />
        </mxCell>
        <mxCell id="vptl2pLsTMNDkcc11D4e-35" value="Bobina de Cabo de Aço Entrançado" style="shape=partialRectangle;html=1;whiteSpace=wrap;connectable=0;strokeColor=inherit;overflow=hidden;fillColor=none;top=0;left=0;bottom=0;right=0;pointerEvents=1;" parent="vptl2pLsTMNDkcc11D4e-34" vertex="1">
          <mxGeometry width="112" height="40" as="geometry">
            <mxRectangle width="112" height="40" as="alternateBounds" />
          </mxGeometry>
        </mxCell>
        <mxCell id="vptl2pLsTMNDkcc11D4e-36" value="---" style="shape=partialRectangle;html=1;whiteSpace=wrap;connectable=0;strokeColor=inherit;overflow=hidden;fillColor=none;top=0;left=0;bottom=0;right=0;pointerEvents=1;" parent="vptl2pLsTMNDkcc11D4e-34" vertex="1">
          <mxGeometry x="112" width="90" height="40" as="geometry">
            <mxRectangle width="90" height="40" as="alternateBounds" />
          </mxGeometry>
        </mxCell>
        <mxCell id="vptl2pLsTMNDkcc11D4e-37" value="---" style="shape=partialRectangle;html=1;whiteSpace=wrap;connectable=0;strokeColor=inherit;overflow=hidden;fillColor=none;top=0;left=0;bottom=0;right=0;pointerEvents=1;" parent="vptl2pLsTMNDkcc11D4e-34" vertex="1">
          <mxGeometry x="202" width="90" height="40" as="geometry">
            <mxRectangle width="90" height="40" as="alternateBounds" />
          </mxGeometry>
        </mxCell>
        <mxCell id="vptl2pLsTMNDkcc11D4e-38" value="---" style="shape=partialRectangle;html=1;whiteSpace=wrap;connectable=0;strokeColor=inherit;overflow=hidden;fillColor=none;top=0;left=0;bottom=0;right=0;pointerEvents=1;" parent="vptl2pLsTMNDkcc11D4e-34" vertex="1">
          <mxGeometry x="292" width="88" height="40" as="geometry">
            <mxRectangle width="88" height="40" as="alternateBounds" />
          </mxGeometry>
        </mxCell>
        <mxCell id="vptl2pLsTMNDkcc11D4e-39" value="---" style="shape=partialRectangle;html=1;whiteSpace=wrap;connectable=0;strokeColor=inherit;overflow=hidden;fillColor=none;top=0;left=0;bottom=0;right=0;pointerEvents=1;" parent="vptl2pLsTMNDkcc11D4e-34" vertex="1">
          <mxGeometry x="380" width="94" height="40" as="geometry">
            <mxRectangle width="94" height="40" as="alternateBounds" />
          </mxGeometry>
        </mxCell>
        <mxCell id="vptl2pLsTMNDkcc11D4e-40" value="---" style="shape=partialRectangle;html=1;whiteSpace=wrap;connectable=0;strokeColor=inherit;overflow=hidden;fillColor=none;top=0;left=0;bottom=0;right=0;pointerEvents=1;" parent="vptl2pLsTMNDkcc11D4e-34" vertex="1">
          <mxGeometry x="474" width="89" height="40" as="geometry">
            <mxRectangle width="89" height="40" as="alternateBounds" />
          </mxGeometry>
        </mxCell>
        <mxCell id="vptl2pLsTMNDkcc11D4e-41" value="0.05 h" style="shape=partialRectangle;html=1;whiteSpace=wrap;connectable=0;strokeColor=inherit;overflow=hidden;fillColor=none;top=0;left=0;bottom=0;right=0;pointerEvents=1;" parent="vptl2pLsTMNDkcc11D4e-34" vertex="1">
          <mxGeometry x="563" width="89" height="40" as="geometry">
            <mxRectangle width="89" height="40" as="alternateBounds" />
          </mxGeometry>
        </mxCell>
        <mxCell id="xXYMBX1p7_V4iNAm3uVP-50" style="shape=tableRow;horizontal=0;startSize=0;swimlaneHead=0;swimlaneBody=0;strokeColor=inherit;top=0;left=0;bottom=0;right=0;collapsible=0;dropTarget=0;fillColor=none;points=[[0,0.5],[1,0.5]];portConstraint=eastwest;" vertex="1" parent="vptl2pLsTMNDkcc11D4e-1">
          <mxGeometry y="210" width="652" height="40" as="geometry" />
        </mxCell>
        <mxCell id="xXYMBX1p7_V4iNAm3uVP-51" value="Custo/hora (€)" style="shape=partialRectangle;html=1;whiteSpace=wrap;connectable=0;strokeColor=inherit;overflow=hidden;fillColor=none;top=0;left=0;bottom=0;right=0;pointerEvents=1;" vertex="1" parent="xXYMBX1p7_V4iNAm3uVP-50">
          <mxGeometry width="112" height="40" as="geometry">
            <mxRectangle width="112" height="40" as="alternateBounds" />
          </mxGeometry>
        </mxCell>
        <mxCell id="xXYMBX1p7_V4iNAm3uVP-52" value="50-70" style="shape=partialRectangle;html=1;whiteSpace=wrap;connectable=0;strokeColor=inherit;overflow=hidden;fillColor=none;top=0;left=0;bottom=0;right=0;pointerEvents=1;" vertex="1" parent="xXYMBX1p7_V4iNAm3uVP-50">
          <mxGeometry x="112" width="90" height="40" as="geometry">
            <mxRectangle width="90" height="40" as="alternateBounds" />
          </mxGeometry>
        </mxCell>
        <mxCell id="xXYMBX1p7_V4iNAm3uVP-53" value="30-50" style="shape=partialRectangle;html=1;whiteSpace=wrap;connectable=0;strokeColor=inherit;overflow=hidden;fillColor=none;top=0;left=0;bottom=0;right=0;pointerEvents=1;" vertex="1" parent="xXYMBX1p7_V4iNAm3uVP-50">
          <mxGeometry x="202" width="90" height="40" as="geometry">
            <mxRectangle width="90" height="40" as="alternateBounds" />
          </mxGeometry>
        </mxCell>
        <mxCell id="xXYMBX1p7_V4iNAm3uVP-54" value="40-60" style="shape=partialRectangle;html=1;whiteSpace=wrap;connectable=0;strokeColor=inherit;overflow=hidden;fillColor=none;top=0;left=0;bottom=0;right=0;pointerEvents=1;" vertex="1" parent="xXYMBX1p7_V4iNAm3uVP-50">
          <mxGeometry x="292" width="88" height="40" as="geometry">
            <mxRectangle width="88" height="40" as="alternateBounds" />
          </mxGeometry>
        </mxCell>
        <mxCell id="xXYMBX1p7_V4iNAm3uVP-55" value="60-80" style="shape=partialRectangle;html=1;whiteSpace=wrap;connectable=0;strokeColor=inherit;overflow=hidden;fillColor=none;top=0;left=0;bottom=0;right=0;pointerEvents=1;" vertex="1" parent="xXYMBX1p7_V4iNAm3uVP-50">
          <mxGeometry x="380" width="94" height="40" as="geometry">
            <mxRectangle width="94" height="40" as="alternateBounds" />
          </mxGeometry>
        </mxCell>
        <mxCell id="xXYMBX1p7_V4iNAm3uVP-56" value="40-60" style="shape=partialRectangle;html=1;whiteSpace=wrap;connectable=0;strokeColor=inherit;overflow=hidden;fillColor=none;top=0;left=0;bottom=0;right=0;pointerEvents=1;" vertex="1" parent="xXYMBX1p7_V4iNAm3uVP-50">
          <mxGeometry x="474" width="89" height="40" as="geometry">
            <mxRectangle width="89" height="40" as="alternateBounds" />
          </mxGeometry>
        </mxCell>
        <mxCell id="xXYMBX1p7_V4iNAm3uVP-57" value="30-50" style="shape=partialRectangle;html=1;whiteSpace=wrap;connectable=0;strokeColor=inherit;overflow=hidden;fillColor=none;top=0;left=0;bottom=0;right=0;pointerEvents=1;" vertex="1" parent="xXYMBX1p7_V4iNAm3uVP-50">
          <mxGeometry x="563" width="89" height="40" as="geometry">
            <mxRectangle width="89" height="40" as="alternateBounds" />
          </mxGeometry>
        </mxCell>
        <mxCell id="vptl2pLsTMNDkcc11D4e-42" value="" style="endArrow=none;html=1;rounded=0;exitX=0;exitY=-0.006;exitDx=0;exitDy=0;entryX=0.169;entryY=0.04;entryDx=0;entryDy=0;entryPerimeter=0;exitPerimeter=0;" parent="vptl2pLsTMNDkcc11D4e-1" source="vptl2pLsTMNDkcc11D4e-10" target="vptl2pLsTMNDkcc11D4e-2" edge="1">
          <mxGeometry width="50" height="50" relative="1" as="geometry">
            <mxPoint x="10" y="50" as="sourcePoint" />
            <mxPoint x="60" as="targetPoint" />
          </mxGeometry>
        </mxCell>
        <mxCell id="vptl2pLsTMNDkcc11D4e-43" value="&lt;b&gt;Componentes&lt;/b&gt;" style="rounded=0;whiteSpace=wrap;html=1;flipH=0;flipV=0;direction=north;horizontal=0;" parent="1" vertex="1">
          <mxGeometry x="-462" y="300" width="60" height="250" as="geometry" />
        </mxCell>
        <mxCell id="vptl2pLsTMNDkcc11D4e-44" value="&lt;b&gt;Operações&lt;/b&gt;" style="rounded=0;whiteSpace=wrap;html=1;flipH=0;flipV=0;direction=east;horizontal=1;" parent="1" vertex="1">
          <mxGeometry x="-402" y="240" width="652" height="60" as="geometry" />
        </mxCell>
        <mxCell id="vptl2pLsTMNDkcc11D4e-45" value="Simplificado" style="text;html=1;align=center;verticalAlign=middle;resizable=0;points=[];autosize=1;strokeColor=none;fillColor=none;" parent="1" vertex="1">
          <mxGeometry x="270" y="368" width="90" height="30" as="geometry" />
        </mxCell>
        <mxCell id="vptl2pLsTMNDkcc11D4e-46" value="" style="endArrow=classic;html=1;rounded=0;" parent="1" edge="1">
          <mxGeometry width="50" height="50" relative="1" as="geometry">
            <mxPoint x="260" y="398" as="sourcePoint" />
            <mxPoint x="390" y="398" as="targetPoint" />
          </mxGeometry>
        </mxCell>
        <mxCell id="vptl2pLsTMNDkcc11D4e-47" value="" style="shape=table;startSize=0;container=1;collapsible=0;childLayout=tableLayout;" parent="1" vertex="1">
          <mxGeometry x="398" y="240" width="360" height="325" as="geometry" />
        </mxCell>
        <mxCell id="vptl2pLsTMNDkcc11D4e-48" value="" style="shape=tableRow;horizontal=0;startSize=0;swimlaneHead=0;swimlaneBody=0;strokeColor=inherit;top=0;left=0;bottom=0;right=0;collapsible=0;dropTarget=0;fillColor=none;points=[[0,0.5],[1,0.5]];portConstraint=eastwest;" parent="vptl2pLsTMNDkcc11D4e-47" vertex="1">
          <mxGeometry width="360" height="65" as="geometry" />
        </mxCell>
        <mxCell id="vptl2pLsTMNDkcc11D4e-49" value="&lt;b&gt;Componentes&lt;/b&gt;" style="shape=partialRectangle;html=1;whiteSpace=wrap;connectable=0;strokeColor=inherit;overflow=hidden;fillColor=none;top=0;left=0;bottom=0;right=0;pointerEvents=1;" parent="vptl2pLsTMNDkcc11D4e-48" vertex="1">
          <mxGeometry width="120" height="65" as="geometry">
            <mxRectangle width="120" height="65" as="alternateBounds" />
          </mxGeometry>
        </mxCell>
        <mxCell id="vptl2pLsTMNDkcc11D4e-50" value="&lt;b&gt;Operações&lt;/b&gt;" style="shape=partialRectangle;html=1;whiteSpace=wrap;connectable=0;strokeColor=inherit;overflow=hidden;fillColor=none;top=0;left=0;bottom=0;right=0;pointerEvents=1;" parent="vptl2pLsTMNDkcc11D4e-48" vertex="1">
          <mxGeometry x="120" width="120" height="65" as="geometry">
            <mxRectangle width="120" height="65" as="alternateBounds" />
          </mxGeometry>
        </mxCell>
        <mxCell id="vptl2pLsTMNDkcc11D4e-51" value="&lt;b&gt;Custo de Produção Máxima&lt;/b&gt;" style="shape=partialRectangle;html=1;whiteSpace=wrap;connectable=0;strokeColor=inherit;overflow=hidden;fillColor=none;top=0;left=0;bottom=0;right=0;pointerEvents=1;" parent="vptl2pLsTMNDkcc11D4e-48" vertex="1">
          <mxGeometry x="240" width="120" height="65" as="geometry">
            <mxRectangle width="120" height="65" as="alternateBounds" />
          </mxGeometry>
        </mxCell>
        <mxCell id="vptl2pLsTMNDkcc11D4e-52" value="" style="shape=tableRow;horizontal=0;startSize=0;swimlaneHead=0;swimlaneBody=0;strokeColor=inherit;top=0;left=0;bottom=0;right=0;collapsible=0;dropTarget=0;fillColor=none;points=[[0,0.5],[1,0.5]];portConstraint=eastwest;" parent="vptl2pLsTMNDkcc11D4e-47" vertex="1">
          <mxGeometry y="65" width="360" height="65" as="geometry" />
        </mxCell>
        <mxCell id="vptl2pLsTMNDkcc11D4e-53" value="Fio de Aço" style="shape=partialRectangle;html=1;whiteSpace=wrap;connectable=0;strokeColor=inherit;overflow=hidden;fillColor=none;top=0;left=0;bottom=0;right=0;pointerEvents=1;" parent="vptl2pLsTMNDkcc11D4e-52" vertex="1">
          <mxGeometry width="120" height="65" as="geometry">
            <mxRectangle width="120" height="65" as="alternateBounds" />
          </mxGeometry>
        </mxCell>
        <mxCell id="vptl2pLsTMNDkcc11D4e-54" value="&lt;span style=&quot;text-align: left;&quot;&gt;- Estiragem&lt;/span&gt;&lt;div&gt;&lt;span style=&quot;text-align: left;&quot;&gt;- Pré-tratamento&lt;/span&gt;&lt;span style=&quot;text-align: left;&quot;&gt;&lt;/span&gt;&lt;/div&gt;&lt;div&gt;&lt;span style=&quot;text-align: left;&quot;&gt;- Galvanização&amp;nbsp;&lt;/span&gt;&lt;span style=&quot;text-align: left;&quot;&gt;&lt;/span&gt;&lt;/div&gt;" style="shape=partialRectangle;html=1;whiteSpace=wrap;connectable=0;strokeColor=inherit;overflow=hidden;fillColor=none;top=0;left=0;bottom=0;right=0;pointerEvents=1;" parent="vptl2pLsTMNDkcc11D4e-52" vertex="1">
          <mxGeometry x="120" width="120" height="65" as="geometry">
            <mxRectangle width="120" height="65" as="alternateBounds" />
          </mxGeometry>
        </mxCell>
        <mxCell id="vptl2pLsTMNDkcc11D4e-55" value="9,67 €" style="shape=partialRectangle;html=1;whiteSpace=wrap;connectable=0;strokeColor=inherit;overflow=hidden;fillColor=none;top=0;left=0;bottom=0;right=0;pointerEvents=1;" parent="vptl2pLsTMNDkcc11D4e-52" vertex="1">
          <mxGeometry x="240" width="120" height="65" as="geometry">
            <mxRectangle width="120" height="65" as="alternateBounds" />
          </mxGeometry>
        </mxCell>
        <mxCell id="vptl2pLsTMNDkcc11D4e-56" value="" style="shape=tableRow;horizontal=0;startSize=0;swimlaneHead=0;swimlaneBody=0;strokeColor=inherit;top=0;left=0;bottom=0;right=0;collapsible=0;dropTarget=0;fillColor=none;points=[[0,0.5],[1,0.5]];portConstraint=eastwest;" parent="vptl2pLsTMNDkcc11D4e-47" vertex="1">
          <mxGeometry y="130" width="360" height="65" as="geometry" />
        </mxCell>
        <mxCell id="vptl2pLsTMNDkcc11D4e-57" value="Fio de Aço Galvanizado" style="shape=partialRectangle;html=1;whiteSpace=wrap;connectable=0;strokeColor=inherit;overflow=hidden;fillColor=none;top=0;left=0;bottom=0;right=0;pointerEvents=1;" parent="vptl2pLsTMNDkcc11D4e-56" vertex="1">
          <mxGeometry width="120" height="65" as="geometry">
            <mxRectangle width="120" height="65" as="alternateBounds" />
          </mxGeometry>
        </mxCell>
        <mxCell id="vptl2pLsTMNDkcc11D4e-58" value="- Torção" style="shape=partialRectangle;html=1;whiteSpace=wrap;connectable=0;strokeColor=inherit;overflow=hidden;fillColor=none;top=0;left=0;bottom=0;right=0;pointerEvents=1;" parent="vptl2pLsTMNDkcc11D4e-56" vertex="1">
          <mxGeometry x="120" width="120" height="65" as="geometry">
            <mxRectangle width="120" height="65" as="alternateBounds" />
          </mxGeometry>
        </mxCell>
        <mxCell id="vptl2pLsTMNDkcc11D4e-59" value="4,00 €" style="shape=partialRectangle;html=1;whiteSpace=wrap;connectable=0;strokeColor=inherit;overflow=hidden;fillColor=none;top=0;left=0;bottom=0;right=0;pointerEvents=1;" parent="vptl2pLsTMNDkcc11D4e-56" vertex="1">
          <mxGeometry x="240" width="120" height="65" as="geometry">
            <mxRectangle width="120" height="65" as="alternateBounds" />
          </mxGeometry>
        </mxCell>
        <mxCell id="vptl2pLsTMNDkcc11D4e-60" value="" style="shape=tableRow;horizontal=0;startSize=0;swimlaneHead=0;swimlaneBody=0;strokeColor=inherit;top=0;left=0;bottom=0;right=0;collapsible=0;dropTarget=0;fillColor=none;points=[[0,0.5],[1,0.5]];portConstraint=eastwest;" parent="vptl2pLsTMNDkcc11D4e-47" vertex="1">
          <mxGeometry y="195" width="360" height="65" as="geometry" />
        </mxCell>
        <mxCell id="vptl2pLsTMNDkcc11D4e-61" value="Cabo de Aço Entrançado" style="shape=partialRectangle;html=1;whiteSpace=wrap;connectable=0;strokeColor=inherit;overflow=hidden;fillColor=none;top=0;left=0;bottom=0;right=0;pointerEvents=1;" parent="vptl2pLsTMNDkcc11D4e-60" vertex="1">
          <mxGeometry width="120" height="65" as="geometry">
            <mxRectangle width="120" height="65" as="alternateBounds" />
          </mxGeometry>
        </mxCell>
        <mxCell id="vptl2pLsTMNDkcc11D4e-62" value="- Corte" style="shape=partialRectangle;html=1;whiteSpace=wrap;connectable=0;strokeColor=inherit;overflow=hidden;fillColor=none;top=0;left=0;bottom=0;right=0;pointerEvents=1;" parent="vptl2pLsTMNDkcc11D4e-60" vertex="1">
          <mxGeometry x="120" width="120" height="65" as="geometry">
            <mxRectangle width="120" height="65" as="alternateBounds" />
          </mxGeometry>
        </mxCell>
        <mxCell id="vptl2pLsTMNDkcc11D4e-63" value="1,02 €" style="shape=partialRectangle;html=1;whiteSpace=wrap;connectable=0;strokeColor=inherit;overflow=hidden;fillColor=none;top=0;left=0;bottom=0;right=0;pointerEvents=1;" parent="vptl2pLsTMNDkcc11D4e-60" vertex="1">
          <mxGeometry x="240" width="120" height="65" as="geometry">
            <mxRectangle width="120" height="65" as="alternateBounds" />
          </mxGeometry>
        </mxCell>
        <mxCell id="xXYMBX1p7_V4iNAm3uVP-58" style="shape=tableRow;horizontal=0;startSize=0;swimlaneHead=0;swimlaneBody=0;strokeColor=inherit;top=0;left=0;bottom=0;right=0;collapsible=0;dropTarget=0;fillColor=none;points=[[0,0.5],[1,0.5]];portConstraint=eastwest;" vertex="1" parent="vptl2pLsTMNDkcc11D4e-47">
          <mxGeometry y="260" width="360" height="65" as="geometry" />
        </mxCell>
        <mxCell id="xXYMBX1p7_V4iNAm3uVP-59" value="Bobina de Cabo de Aço Entrançado" style="shape=partialRectangle;html=1;whiteSpace=wrap;connectable=0;strokeColor=inherit;overflow=hidden;fillColor=none;top=0;left=0;bottom=0;right=0;pointerEvents=1;" vertex="1" parent="xXYMBX1p7_V4iNAm3uVP-58">
          <mxGeometry width="120" height="65" as="geometry">
            <mxRectangle width="120" height="65" as="alternateBounds" />
          </mxGeometry>
        </mxCell>
        <mxCell id="xXYMBX1p7_V4iNAm3uVP-60" value="- Empacotar" style="shape=partialRectangle;html=1;whiteSpace=wrap;connectable=0;strokeColor=inherit;overflow=hidden;fillColor=none;top=0;left=0;bottom=0;right=0;pointerEvents=1;" vertex="1" parent="xXYMBX1p7_V4iNAm3uVP-58">
          <mxGeometry x="120" width="120" height="65" as="geometry">
            <mxRectangle width="120" height="65" as="alternateBounds" />
          </mxGeometry>
        </mxCell>
        <mxCell id="xXYMBX1p7_V4iNAm3uVP-61" value="2,50 €" style="shape=partialRectangle;html=1;whiteSpace=wrap;connectable=0;strokeColor=inherit;overflow=hidden;fillColor=none;top=0;left=0;bottom=0;right=0;pointerEvents=1;" vertex="1" parent="xXYMBX1p7_V4iNAm3uVP-58">
          <mxGeometry x="240" width="120" height="65" as="geometry">
            <mxRectangle width="120" height="65" as="alternateBounds" />
          </mxGeometry>
        </mxCell>
        <mxCell id="vptl2pLsTMNDkcc11D4e-64" value="&lt;div style=&quot;&quot;&gt;&lt;b&gt;&lt;font style=&quot;font-size: 17px;&quot;&gt;Cálculo dos custos de produção&lt;/font&gt;:&lt;/b&gt;&lt;/div&gt;&lt;div style=&quot;&quot;&gt;&lt;br&gt;&lt;/div&gt;&lt;div&gt;&lt;font style=&quot;font-size: 14px;&quot;&gt;&lt;b&gt;Fio de Aço:&lt;/b&gt;&lt;/font&gt;&lt;/div&gt;&lt;div&gt;&lt;br&gt;&lt;/div&gt;&lt;div&gt;Estiragem: 0.022 h * (50 a 70 €) = 1,10 € a 1,54 €&lt;/div&gt;&lt;div&gt;&lt;br&gt;&lt;/div&gt;&lt;div&gt;Pré-tratamento: 0.063 h * (30 a 50 €) = 1,89 € a 3,15 €&lt;/div&gt;&lt;div&gt;&lt;br&gt;&lt;/div&gt;&lt;div&gt;Galvanização: 0.083 h * (40 a 60 €) = 3,32 € a 4,98 €&lt;/div&gt;&lt;div&gt;&lt;br&gt;&lt;/div&gt;&lt;div&gt;&lt;b&gt;Total&lt;/b&gt;: 1,10 + 1,89 + 3,32 = 6,31 € (mínimo) a 1,54 + 3,15 + 4,98 = &lt;b&gt;9,67 € (máximo&lt;/b&gt;)&lt;/div&gt;&lt;div&gt;&lt;br&gt;&lt;/div&gt;&lt;div&gt;&lt;br&gt;&lt;/div&gt;&lt;div&gt;&lt;font style=&quot;font-size: 14px;&quot;&gt;&lt;b&gt;Fio de Aço Galvanizado:&lt;/b&gt;&lt;/font&gt;&lt;/div&gt;&lt;div&gt;&lt;font style=&quot;font-size: 14px;&quot;&gt;&lt;b&gt;&lt;br&gt;&lt;/b&gt;&lt;/font&gt;&lt;/div&gt;&lt;div&gt;Torção: 0.05 h * (60 a 80 €) = 3,00 € a &lt;b&gt;4,00 €&lt;/b&gt;&lt;/div&gt;&lt;div&gt;&lt;br&gt;&lt;/div&gt;&lt;div&gt;&lt;b&gt;&lt;font style=&quot;font-size: 14px;&quot;&gt;Cabo de Aço Entrançado:&lt;/font&gt;&lt;/b&gt;&lt;/div&gt;&lt;div&gt;&lt;b&gt;&lt;font style=&quot;font-size: 14px;&quot;&gt;&lt;br&gt;&lt;/font&gt;&lt;/b&gt;&lt;/div&gt;&lt;div&gt;Corte: 0.017 h * (40 a 60 €) = 0,68 € a 1,02 €&lt;/div&gt;&lt;div&gt;&lt;br&gt;&lt;/div&gt;&lt;div&gt;&lt;span style=&quot;text-align: center; text-wrap-mode: wrap;&quot;&gt;&lt;font style=&quot;font-size: 14px;&quot;&gt;&lt;b&gt;Bobina de Cabo de Aço Entrançado:&lt;/b&gt;&lt;/font&gt;&lt;/span&gt;&lt;/div&gt;&lt;div&gt;&lt;br&gt;&lt;/div&gt;&lt;div&gt;Empacotamento: 0.05 h * (30 a 50 €) = 1,50 € a 2,50 €&lt;/div&gt;&lt;div&gt;&lt;br&gt;&lt;/div&gt;&lt;div&gt;&lt;br&gt;&lt;/div&gt;&lt;div&gt;&lt;br&gt;&lt;/div&gt;" style="text;html=1;align=left;verticalAlign=middle;resizable=0;points=[];autosize=1;strokeColor=none;fillColor=none;" parent="1" vertex="1">
          <mxGeometry x="843" y="155" width="470" height="420" as="geometry" />
        </mxCell>
      </root>
    </mxGraphModel>
  </diagram>
</mxfile>
